<mxfile host="app.diagrams.net" agent="Mozilla/5.0 (Windows NT 10.0; Win64; x64) AppleWebKit/537.36 (KHTML, like Gecko) Chrome/131.0.0.0 Safari/537.36" version="25.0.3">
  <diagram name="Page-1" id="ux7u68v6aGoj9Clavv-Z">
    <mxGraphModel dx="1765" dy="1918" grid="1" gridSize="10" guides="1" tooltips="1" connect="1" arrows="1" fold="1" page="1" pageScale="1" pageWidth="827" pageHeight="1169" math="0" shadow="0">
      <root>
        <mxCell id="0" />
        <mxCell id="1" parent="0" />
        <mxCell id="ma2GObzfx0fH_Ag3KKbZ-49" style="edgeStyle=none;shape=connector;rounded=0;orthogonalLoop=1;jettySize=auto;html=1;strokeColor=default;align=center;verticalAlign=middle;fontFamily=Helvetica;fontSize=11;fontColor=default;labelBackgroundColor=default;endArrow=none;endFill=0;" edge="1" parent="1" source="ma2GObzfx0fH_Ag3KKbZ-1" target="ma2GObzfx0fH_Ag3KKbZ-48">
          <mxGeometry relative="1" as="geometry" />
        </mxCell>
        <mxCell id="ma2GObzfx0fH_Ag3KKbZ-50" style="edgeStyle=none;shape=connector;rounded=0;orthogonalLoop=1;jettySize=auto;html=1;strokeColor=default;align=center;verticalAlign=middle;fontFamily=Helvetica;fontSize=11;fontColor=default;labelBackgroundColor=default;endArrow=none;endFill=0;" edge="1" parent="1" source="ma2GObzfx0fH_Ag3KKbZ-1" target="ma2GObzfx0fH_Ag3KKbZ-48">
          <mxGeometry relative="1" as="geometry">
            <Array as="points">
              <mxPoint x="230" y="210" />
            </Array>
          </mxGeometry>
        </mxCell>
        <mxCell id="ma2GObzfx0fH_Ag3KKbZ-52" style="edgeStyle=none;shape=connector;rounded=0;orthogonalLoop=1;jettySize=auto;html=1;strokeColor=default;align=center;verticalAlign=middle;fontFamily=Helvetica;fontSize=11;fontColor=default;labelBackgroundColor=default;endArrow=none;endFill=0;" edge="1" parent="1" source="ma2GObzfx0fH_Ag3KKbZ-1" target="ma2GObzfx0fH_Ag3KKbZ-51">
          <mxGeometry relative="1" as="geometry" />
        </mxCell>
        <mxCell id="ma2GObzfx0fH_Ag3KKbZ-57" style="edgeStyle=none;shape=connector;rounded=0;orthogonalLoop=1;jettySize=auto;html=1;strokeColor=default;align=center;verticalAlign=middle;fontFamily=Helvetica;fontSize=11;fontColor=default;labelBackgroundColor=default;endArrow=none;endFill=0;" edge="1" parent="1" source="ma2GObzfx0fH_Ag3KKbZ-1" target="ma2GObzfx0fH_Ag3KKbZ-56">
          <mxGeometry relative="1" as="geometry" />
        </mxCell>
        <mxCell id="ma2GObzfx0fH_Ag3KKbZ-59" style="edgeStyle=none;shape=connector;rounded=0;orthogonalLoop=1;jettySize=auto;html=1;strokeColor=default;align=center;verticalAlign=middle;fontFamily=Helvetica;fontSize=11;fontColor=default;labelBackgroundColor=default;endArrow=none;endFill=0;" edge="1" parent="1" source="ma2GObzfx0fH_Ag3KKbZ-1" target="ma2GObzfx0fH_Ag3KKbZ-54">
          <mxGeometry relative="1" as="geometry" />
        </mxCell>
        <mxCell id="ma2GObzfx0fH_Ag3KKbZ-83" style="edgeStyle=none;shape=connector;rounded=0;orthogonalLoop=1;jettySize=auto;html=1;strokeColor=default;align=center;verticalAlign=middle;fontFamily=Helvetica;fontSize=11;fontColor=default;labelBackgroundColor=default;endArrow=none;endFill=0;" edge="1" parent="1" source="ma2GObzfx0fH_Ag3KKbZ-1" target="ma2GObzfx0fH_Ag3KKbZ-82">
          <mxGeometry relative="1" as="geometry" />
        </mxCell>
        <mxCell id="ma2GObzfx0fH_Ag3KKbZ-101" style="edgeStyle=none;shape=connector;rounded=0;orthogonalLoop=1;jettySize=auto;html=1;strokeColor=default;align=center;verticalAlign=middle;fontFamily=Helvetica;fontSize=11;fontColor=default;labelBackgroundColor=default;endArrow=none;endFill=0;" edge="1" parent="1" source="ma2GObzfx0fH_Ag3KKbZ-1" target="ma2GObzfx0fH_Ag3KKbZ-100">
          <mxGeometry relative="1" as="geometry" />
        </mxCell>
        <mxCell id="ma2GObzfx0fH_Ag3KKbZ-1" value="users" style="swimlane;fontStyle=0;childLayout=stackLayout;horizontal=1;startSize=30;horizontalStack=0;resizeParent=1;resizeParentMax=0;resizeLast=0;collapsible=1;marginBottom=0;whiteSpace=wrap;html=1;" vertex="1" parent="1">
          <mxGeometry x="310" y="320" width="140" height="120" as="geometry" />
        </mxCell>
        <mxCell id="ma2GObzfx0fH_Ag3KKbZ-2" value="Item 1" style="text;strokeColor=none;fillColor=none;align=left;verticalAlign=middle;spacingLeft=4;spacingRight=4;overflow=hidden;points=[[0,0.5],[1,0.5]];portConstraint=eastwest;rotatable=0;whiteSpace=wrap;html=1;" vertex="1" parent="ma2GObzfx0fH_Ag3KKbZ-1">
          <mxGeometry y="30" width="140" height="30" as="geometry" />
        </mxCell>
        <mxCell id="ma2GObzfx0fH_Ag3KKbZ-3" value="Item 2" style="text;strokeColor=none;fillColor=none;align=left;verticalAlign=middle;spacingLeft=4;spacingRight=4;overflow=hidden;points=[[0,0.5],[1,0.5]];portConstraint=eastwest;rotatable=0;whiteSpace=wrap;html=1;" vertex="1" parent="ma2GObzfx0fH_Ag3KKbZ-1">
          <mxGeometry y="60" width="140" height="30" as="geometry" />
        </mxCell>
        <mxCell id="ma2GObzfx0fH_Ag3KKbZ-4" value="Item 3" style="text;strokeColor=none;fillColor=none;align=left;verticalAlign=middle;spacingLeft=4;spacingRight=4;overflow=hidden;points=[[0,0.5],[1,0.5]];portConstraint=eastwest;rotatable=0;whiteSpace=wrap;html=1;" vertex="1" parent="ma2GObzfx0fH_Ag3KKbZ-1">
          <mxGeometry y="90" width="140" height="30" as="geometry" />
        </mxCell>
        <mxCell id="ma2GObzfx0fH_Ag3KKbZ-53" style="edgeStyle=none;shape=connector;rounded=0;orthogonalLoop=1;jettySize=auto;html=1;strokeColor=default;align=center;verticalAlign=middle;fontFamily=Helvetica;fontSize=11;fontColor=default;labelBackgroundColor=default;endArrow=none;endFill=0;" edge="1" parent="1" source="ma2GObzfx0fH_Ag3KKbZ-5" target="ma2GObzfx0fH_Ag3KKbZ-51">
          <mxGeometry relative="1" as="geometry" />
        </mxCell>
        <mxCell id="ma2GObzfx0fH_Ag3KKbZ-5" value="city" style="swimlane;fontStyle=0;childLayout=stackLayout;horizontal=1;startSize=30;horizontalStack=0;resizeParent=1;resizeParentMax=0;resizeLast=0;collapsible=1;marginBottom=0;whiteSpace=wrap;html=1;" vertex="1" parent="1">
          <mxGeometry x="310" y="-40" width="140" height="120" as="geometry" />
        </mxCell>
        <mxCell id="ma2GObzfx0fH_Ag3KKbZ-6" value="Item 1" style="text;strokeColor=none;fillColor=none;align=left;verticalAlign=middle;spacingLeft=4;spacingRight=4;overflow=hidden;points=[[0,0.5],[1,0.5]];portConstraint=eastwest;rotatable=0;whiteSpace=wrap;html=1;" vertex="1" parent="ma2GObzfx0fH_Ag3KKbZ-5">
          <mxGeometry y="30" width="140" height="30" as="geometry" />
        </mxCell>
        <mxCell id="ma2GObzfx0fH_Ag3KKbZ-7" value="Item 2" style="text;strokeColor=none;fillColor=none;align=left;verticalAlign=middle;spacingLeft=4;spacingRight=4;overflow=hidden;points=[[0,0.5],[1,0.5]];portConstraint=eastwest;rotatable=0;whiteSpace=wrap;html=1;" vertex="1" parent="ma2GObzfx0fH_Ag3KKbZ-5">
          <mxGeometry y="60" width="140" height="30" as="geometry" />
        </mxCell>
        <mxCell id="ma2GObzfx0fH_Ag3KKbZ-8" value="Item 3" style="text;strokeColor=none;fillColor=none;align=left;verticalAlign=middle;spacingLeft=4;spacingRight=4;overflow=hidden;points=[[0,0.5],[1,0.5]];portConstraint=eastwest;rotatable=0;whiteSpace=wrap;html=1;" vertex="1" parent="ma2GObzfx0fH_Ag3KKbZ-5">
          <mxGeometry y="90" width="140" height="30" as="geometry" />
        </mxCell>
        <mxCell id="ma2GObzfx0fH_Ag3KKbZ-64" style="edgeStyle=none;shape=connector;rounded=0;orthogonalLoop=1;jettySize=auto;html=1;strokeColor=default;align=center;verticalAlign=middle;fontFamily=Helvetica;fontSize=11;fontColor=default;labelBackgroundColor=default;endArrow=none;endFill=0;" edge="1" parent="1" source="ma2GObzfx0fH_Ag3KKbZ-9" target="ma2GObzfx0fH_Ag3KKbZ-63">
          <mxGeometry relative="1" as="geometry" />
        </mxCell>
        <mxCell id="ma2GObzfx0fH_Ag3KKbZ-72" style="edgeStyle=none;shape=connector;rounded=0;orthogonalLoop=1;jettySize=auto;html=1;strokeColor=default;align=center;verticalAlign=middle;fontFamily=Helvetica;fontSize=11;fontColor=default;labelBackgroundColor=default;endArrow=none;endFill=0;" edge="1" parent="1" source="ma2GObzfx0fH_Ag3KKbZ-9" target="ma2GObzfx0fH_Ag3KKbZ-70">
          <mxGeometry relative="1" as="geometry" />
        </mxCell>
        <mxCell id="ma2GObzfx0fH_Ag3KKbZ-9" value="posts" style="swimlane;fontStyle=0;childLayout=stackLayout;horizontal=1;startSize=30;horizontalStack=0;resizeParent=1;resizeParentMax=0;resizeLast=0;collapsible=1;marginBottom=0;whiteSpace=wrap;html=1;" vertex="1" parent="1">
          <mxGeometry x="720" y="140" width="140" height="120" as="geometry" />
        </mxCell>
        <mxCell id="ma2GObzfx0fH_Ag3KKbZ-10" value="Item 1" style="text;strokeColor=none;fillColor=none;align=left;verticalAlign=middle;spacingLeft=4;spacingRight=4;overflow=hidden;points=[[0,0.5],[1,0.5]];portConstraint=eastwest;rotatable=0;whiteSpace=wrap;html=1;" vertex="1" parent="ma2GObzfx0fH_Ag3KKbZ-9">
          <mxGeometry y="30" width="140" height="30" as="geometry" />
        </mxCell>
        <mxCell id="ma2GObzfx0fH_Ag3KKbZ-11" value="Item 2" style="text;strokeColor=none;fillColor=none;align=left;verticalAlign=middle;spacingLeft=4;spacingRight=4;overflow=hidden;points=[[0,0.5],[1,0.5]];portConstraint=eastwest;rotatable=0;whiteSpace=wrap;html=1;" vertex="1" parent="ma2GObzfx0fH_Ag3KKbZ-9">
          <mxGeometry y="60" width="140" height="30" as="geometry" />
        </mxCell>
        <mxCell id="ma2GObzfx0fH_Ag3KKbZ-12" value="Item 3" style="text;strokeColor=none;fillColor=none;align=left;verticalAlign=middle;spacingLeft=4;spacingRight=4;overflow=hidden;points=[[0,0.5],[1,0.5]];portConstraint=eastwest;rotatable=0;whiteSpace=wrap;html=1;" vertex="1" parent="ma2GObzfx0fH_Ag3KKbZ-9">
          <mxGeometry y="90" width="140" height="30" as="geometry" />
        </mxCell>
        <mxCell id="ma2GObzfx0fH_Ag3KKbZ-65" style="edgeStyle=none;shape=connector;rounded=0;orthogonalLoop=1;jettySize=auto;html=1;strokeColor=default;align=center;verticalAlign=middle;fontFamily=Helvetica;fontSize=11;fontColor=default;labelBackgroundColor=default;endArrow=none;endFill=0;" edge="1" parent="1" source="ma2GObzfx0fH_Ag3KKbZ-13" target="ma2GObzfx0fH_Ag3KKbZ-63">
          <mxGeometry relative="1" as="geometry" />
        </mxCell>
        <mxCell id="ma2GObzfx0fH_Ag3KKbZ-13" value="tags" style="swimlane;fontStyle=0;childLayout=stackLayout;horizontal=1;startSize=30;horizontalStack=0;resizeParent=1;resizeParentMax=0;resizeLast=0;collapsible=1;marginBottom=0;whiteSpace=wrap;html=1;" vertex="1" parent="1">
          <mxGeometry x="870" y="395" width="140" height="120" as="geometry" />
        </mxCell>
        <mxCell id="ma2GObzfx0fH_Ag3KKbZ-14" value="Item 1" style="text;strokeColor=none;fillColor=none;align=left;verticalAlign=middle;spacingLeft=4;spacingRight=4;overflow=hidden;points=[[0,0.5],[1,0.5]];portConstraint=eastwest;rotatable=0;whiteSpace=wrap;html=1;" vertex="1" parent="ma2GObzfx0fH_Ag3KKbZ-13">
          <mxGeometry y="30" width="140" height="30" as="geometry" />
        </mxCell>
        <mxCell id="ma2GObzfx0fH_Ag3KKbZ-15" value="Item 2" style="text;strokeColor=none;fillColor=none;align=left;verticalAlign=middle;spacingLeft=4;spacingRight=4;overflow=hidden;points=[[0,0.5],[1,0.5]];portConstraint=eastwest;rotatable=0;whiteSpace=wrap;html=1;" vertex="1" parent="ma2GObzfx0fH_Ag3KKbZ-13">
          <mxGeometry y="60" width="140" height="30" as="geometry" />
        </mxCell>
        <mxCell id="ma2GObzfx0fH_Ag3KKbZ-16" value="Item 3" style="text;strokeColor=none;fillColor=none;align=left;verticalAlign=middle;spacingLeft=4;spacingRight=4;overflow=hidden;points=[[0,0.5],[1,0.5]];portConstraint=eastwest;rotatable=0;whiteSpace=wrap;html=1;" vertex="1" parent="ma2GObzfx0fH_Ag3KKbZ-13">
          <mxGeometry y="90" width="140" height="30" as="geometry" />
        </mxCell>
        <mxCell id="ma2GObzfx0fH_Ag3KKbZ-71" style="edgeStyle=none;shape=connector;rounded=0;orthogonalLoop=1;jettySize=auto;html=1;strokeColor=default;align=center;verticalAlign=middle;fontFamily=Helvetica;fontSize=11;fontColor=default;labelBackgroundColor=default;endArrow=none;endFill=0;" edge="1" parent="1" source="ma2GObzfx0fH_Ag3KKbZ-17" target="ma2GObzfx0fH_Ag3KKbZ-70">
          <mxGeometry relative="1" as="geometry" />
        </mxCell>
        <mxCell id="ma2GObzfx0fH_Ag3KKbZ-74" style="edgeStyle=none;shape=connector;rounded=0;orthogonalLoop=1;jettySize=auto;html=1;strokeColor=default;align=center;verticalAlign=middle;fontFamily=Helvetica;fontSize=11;fontColor=default;labelBackgroundColor=default;endArrow=none;endFill=0;" edge="1" parent="1" source="ma2GObzfx0fH_Ag3KKbZ-17" target="ma2GObzfx0fH_Ag3KKbZ-73">
          <mxGeometry relative="1" as="geometry" />
        </mxCell>
        <mxCell id="ma2GObzfx0fH_Ag3KKbZ-17" value="exercice_results" style="swimlane;fontStyle=0;childLayout=stackLayout;horizontal=1;startSize=30;horizontalStack=0;resizeParent=1;resizeParentMax=0;resizeLast=0;collapsible=1;marginBottom=0;whiteSpace=wrap;html=1;" vertex="1" parent="1">
          <mxGeometry x="590" y="530" width="140" height="120" as="geometry" />
        </mxCell>
        <mxCell id="ma2GObzfx0fH_Ag3KKbZ-18" value="Item 1" style="text;strokeColor=none;fillColor=none;align=left;verticalAlign=middle;spacingLeft=4;spacingRight=4;overflow=hidden;points=[[0,0.5],[1,0.5]];portConstraint=eastwest;rotatable=0;whiteSpace=wrap;html=1;" vertex="1" parent="ma2GObzfx0fH_Ag3KKbZ-17">
          <mxGeometry y="30" width="140" height="30" as="geometry" />
        </mxCell>
        <mxCell id="ma2GObzfx0fH_Ag3KKbZ-19" value="Item 2" style="text;strokeColor=none;fillColor=none;align=left;verticalAlign=middle;spacingLeft=4;spacingRight=4;overflow=hidden;points=[[0,0.5],[1,0.5]];portConstraint=eastwest;rotatable=0;whiteSpace=wrap;html=1;" vertex="1" parent="ma2GObzfx0fH_Ag3KKbZ-17">
          <mxGeometry y="60" width="140" height="30" as="geometry" />
        </mxCell>
        <mxCell id="ma2GObzfx0fH_Ag3KKbZ-20" value="Item 3" style="text;strokeColor=none;fillColor=none;align=left;verticalAlign=middle;spacingLeft=4;spacingRight=4;overflow=hidden;points=[[0,0.5],[1,0.5]];portConstraint=eastwest;rotatable=0;whiteSpace=wrap;html=1;" vertex="1" parent="ma2GObzfx0fH_Ag3KKbZ-17">
          <mxGeometry y="90" width="140" height="30" as="geometry" />
        </mxCell>
        <mxCell id="ma2GObzfx0fH_Ag3KKbZ-21" value="muscle_groups" style="swimlane;fontStyle=0;childLayout=stackLayout;horizontal=1;startSize=30;horizontalStack=0;resizeParent=1;resizeParentMax=0;resizeLast=0;collapsible=1;marginBottom=0;whiteSpace=wrap;html=1;" vertex="1" parent="1">
          <mxGeometry x="640" y="750" width="140" height="120" as="geometry" />
        </mxCell>
        <mxCell id="ma2GObzfx0fH_Ag3KKbZ-22" value="Item 1" style="text;strokeColor=none;fillColor=none;align=left;verticalAlign=middle;spacingLeft=4;spacingRight=4;overflow=hidden;points=[[0,0.5],[1,0.5]];portConstraint=eastwest;rotatable=0;whiteSpace=wrap;html=1;" vertex="1" parent="ma2GObzfx0fH_Ag3KKbZ-21">
          <mxGeometry y="30" width="140" height="30" as="geometry" />
        </mxCell>
        <mxCell id="ma2GObzfx0fH_Ag3KKbZ-23" value="Item 2" style="text;strokeColor=none;fillColor=none;align=left;verticalAlign=middle;spacingLeft=4;spacingRight=4;overflow=hidden;points=[[0,0.5],[1,0.5]];portConstraint=eastwest;rotatable=0;whiteSpace=wrap;html=1;" vertex="1" parent="ma2GObzfx0fH_Ag3KKbZ-21">
          <mxGeometry y="60" width="140" height="30" as="geometry" />
        </mxCell>
        <mxCell id="ma2GObzfx0fH_Ag3KKbZ-24" value="Item 3" style="text;strokeColor=none;fillColor=none;align=left;verticalAlign=middle;spacingLeft=4;spacingRight=4;overflow=hidden;points=[[0,0.5],[1,0.5]];portConstraint=eastwest;rotatable=0;whiteSpace=wrap;html=1;" vertex="1" parent="ma2GObzfx0fH_Ag3KKbZ-21">
          <mxGeometry y="90" width="140" height="30" as="geometry" />
        </mxCell>
        <mxCell id="ma2GObzfx0fH_Ag3KKbZ-77" style="edgeStyle=none;shape=connector;rounded=0;orthogonalLoop=1;jettySize=auto;html=1;strokeColor=default;align=center;verticalAlign=middle;fontFamily=Helvetica;fontSize=11;fontColor=default;labelBackgroundColor=default;endArrow=none;endFill=0;" edge="1" parent="1" source="ma2GObzfx0fH_Ag3KKbZ-25" target="ma2GObzfx0fH_Ag3KKbZ-76">
          <mxGeometry relative="1" as="geometry" />
        </mxCell>
        <mxCell id="ma2GObzfx0fH_Ag3KKbZ-80" style="edgeStyle=none;shape=connector;rounded=0;orthogonalLoop=1;jettySize=auto;html=1;strokeColor=default;align=center;verticalAlign=middle;fontFamily=Helvetica;fontSize=11;fontColor=default;labelBackgroundColor=default;endArrow=none;endFill=0;" edge="1" parent="1" source="ma2GObzfx0fH_Ag3KKbZ-25" target="ma2GObzfx0fH_Ag3KKbZ-79">
          <mxGeometry relative="1" as="geometry" />
        </mxCell>
        <mxCell id="ma2GObzfx0fH_Ag3KKbZ-25" value="exercices" style="swimlane;fontStyle=0;childLayout=stackLayout;horizontal=1;startSize=30;horizontalStack=0;resizeParent=1;resizeParentMax=0;resizeLast=0;collapsible=1;marginBottom=0;whiteSpace=wrap;html=1;" vertex="1" parent="1">
          <mxGeometry x="310" y="670" width="140" height="120" as="geometry" />
        </mxCell>
        <mxCell id="ma2GObzfx0fH_Ag3KKbZ-26" value="Item 1" style="text;strokeColor=none;fillColor=none;align=left;verticalAlign=middle;spacingLeft=4;spacingRight=4;overflow=hidden;points=[[0,0.5],[1,0.5]];portConstraint=eastwest;rotatable=0;whiteSpace=wrap;html=1;" vertex="1" parent="ma2GObzfx0fH_Ag3KKbZ-25">
          <mxGeometry y="30" width="140" height="30" as="geometry" />
        </mxCell>
        <mxCell id="ma2GObzfx0fH_Ag3KKbZ-27" value="Item 2" style="text;strokeColor=none;fillColor=none;align=left;verticalAlign=middle;spacingLeft=4;spacingRight=4;overflow=hidden;points=[[0,0.5],[1,0.5]];portConstraint=eastwest;rotatable=0;whiteSpace=wrap;html=1;" vertex="1" parent="ma2GObzfx0fH_Ag3KKbZ-25">
          <mxGeometry y="60" width="140" height="30" as="geometry" />
        </mxCell>
        <mxCell id="ma2GObzfx0fH_Ag3KKbZ-28" value="Item 3" style="text;strokeColor=none;fillColor=none;align=left;verticalAlign=middle;spacingLeft=4;spacingRight=4;overflow=hidden;points=[[0,0.5],[1,0.5]];portConstraint=eastwest;rotatable=0;whiteSpace=wrap;html=1;" vertex="1" parent="ma2GObzfx0fH_Ag3KKbZ-25">
          <mxGeometry y="90" width="140" height="30" as="geometry" />
        </mxCell>
        <mxCell id="ma2GObzfx0fH_Ag3KKbZ-89" style="edgeStyle=none;shape=connector;rounded=0;orthogonalLoop=1;jettySize=auto;html=1;strokeColor=default;align=center;verticalAlign=middle;fontFamily=Helvetica;fontSize=11;fontColor=default;labelBackgroundColor=default;endArrow=none;endFill=0;" edge="1" parent="1" source="ma2GObzfx0fH_Ag3KKbZ-29" target="ma2GObzfx0fH_Ag3KKbZ-88">
          <mxGeometry relative="1" as="geometry" />
        </mxCell>
        <mxCell id="ma2GObzfx0fH_Ag3KKbZ-92" style="edgeStyle=none;shape=connector;rounded=0;orthogonalLoop=1;jettySize=auto;html=1;strokeColor=default;align=center;verticalAlign=middle;fontFamily=Helvetica;fontSize=11;fontColor=default;labelBackgroundColor=default;endArrow=none;endFill=0;" edge="1" parent="1" source="ma2GObzfx0fH_Ag3KKbZ-29" target="ma2GObzfx0fH_Ag3KKbZ-91">
          <mxGeometry relative="1" as="geometry" />
        </mxCell>
        <mxCell id="ma2GObzfx0fH_Ag3KKbZ-29" value="workouts" style="swimlane;fontStyle=0;childLayout=stackLayout;horizontal=1;startSize=30;horizontalStack=0;resizeParent=1;resizeParentMax=0;resizeLast=0;collapsible=1;marginBottom=0;whiteSpace=wrap;html=1;" vertex="1" parent="1">
          <mxGeometry x="-50" y="690" width="140" height="120" as="geometry" />
        </mxCell>
        <mxCell id="ma2GObzfx0fH_Ag3KKbZ-30" value="Item 1" style="text;strokeColor=none;fillColor=none;align=left;verticalAlign=middle;spacingLeft=4;spacingRight=4;overflow=hidden;points=[[0,0.5],[1,0.5]];portConstraint=eastwest;rotatable=0;whiteSpace=wrap;html=1;" vertex="1" parent="ma2GObzfx0fH_Ag3KKbZ-29">
          <mxGeometry y="30" width="140" height="30" as="geometry" />
        </mxCell>
        <mxCell id="ma2GObzfx0fH_Ag3KKbZ-31" value="Item 2" style="text;strokeColor=none;fillColor=none;align=left;verticalAlign=middle;spacingLeft=4;spacingRight=4;overflow=hidden;points=[[0,0.5],[1,0.5]];portConstraint=eastwest;rotatable=0;whiteSpace=wrap;html=1;" vertex="1" parent="ma2GObzfx0fH_Ag3KKbZ-29">
          <mxGeometry y="60" width="140" height="30" as="geometry" />
        </mxCell>
        <mxCell id="ma2GObzfx0fH_Ag3KKbZ-32" value="Item 3" style="text;strokeColor=none;fillColor=none;align=left;verticalAlign=middle;spacingLeft=4;spacingRight=4;overflow=hidden;points=[[0,0.5],[1,0.5]];portConstraint=eastwest;rotatable=0;whiteSpace=wrap;html=1;" vertex="1" parent="ma2GObzfx0fH_Ag3KKbZ-29">
          <mxGeometry y="90" width="140" height="30" as="geometry" />
        </mxCell>
        <mxCell id="ma2GObzfx0fH_Ag3KKbZ-46" style="rounded=0;orthogonalLoop=1;jettySize=auto;html=1;endArrow=none;endFill=0;" edge="1" parent="1" source="ma2GObzfx0fH_Ag3KKbZ-33" target="ma2GObzfx0fH_Ag3KKbZ-45">
          <mxGeometry relative="1" as="geometry" />
        </mxCell>
        <mxCell id="ma2GObzfx0fH_Ag3KKbZ-33" value="role" style="swimlane;fontStyle=0;childLayout=stackLayout;horizontal=1;startSize=30;horizontalStack=0;resizeParent=1;resizeParentMax=0;resizeLast=0;collapsible=1;marginBottom=0;whiteSpace=wrap;html=1;" vertex="1" parent="1">
          <mxGeometry x="-100" y="90" width="140" height="120" as="geometry" />
        </mxCell>
        <mxCell id="ma2GObzfx0fH_Ag3KKbZ-34" value="Item 1" style="text;strokeColor=none;fillColor=none;align=left;verticalAlign=middle;spacingLeft=4;spacingRight=4;overflow=hidden;points=[[0,0.5],[1,0.5]];portConstraint=eastwest;rotatable=0;whiteSpace=wrap;html=1;" vertex="1" parent="ma2GObzfx0fH_Ag3KKbZ-33">
          <mxGeometry y="30" width="140" height="30" as="geometry" />
        </mxCell>
        <mxCell id="ma2GObzfx0fH_Ag3KKbZ-35" value="Item 2" style="text;strokeColor=none;fillColor=none;align=left;verticalAlign=middle;spacingLeft=4;spacingRight=4;overflow=hidden;points=[[0,0.5],[1,0.5]];portConstraint=eastwest;rotatable=0;whiteSpace=wrap;html=1;" vertex="1" parent="ma2GObzfx0fH_Ag3KKbZ-33">
          <mxGeometry y="60" width="140" height="30" as="geometry" />
        </mxCell>
        <mxCell id="ma2GObzfx0fH_Ag3KKbZ-36" value="Item 3" style="text;strokeColor=none;fillColor=none;align=left;verticalAlign=middle;spacingLeft=4;spacingRight=4;overflow=hidden;points=[[0,0.5],[1,0.5]];portConstraint=eastwest;rotatable=0;whiteSpace=wrap;html=1;" vertex="1" parent="ma2GObzfx0fH_Ag3KKbZ-33">
          <mxGeometry y="90" width="140" height="30" as="geometry" />
        </mxCell>
        <mxCell id="ma2GObzfx0fH_Ag3KKbZ-95" style="edgeStyle=none;shape=connector;rounded=0;orthogonalLoop=1;jettySize=auto;html=1;strokeColor=default;align=center;verticalAlign=middle;fontFamily=Helvetica;fontSize=11;fontColor=default;labelBackgroundColor=default;endArrow=none;endFill=0;" edge="1" parent="1" source="ma2GObzfx0fH_Ag3KKbZ-37" target="ma2GObzfx0fH_Ag3KKbZ-94">
          <mxGeometry relative="1" as="geometry" />
        </mxCell>
        <mxCell id="ma2GObzfx0fH_Ag3KKbZ-37" value="norifications" style="swimlane;fontStyle=0;childLayout=stackLayout;horizontal=1;startSize=30;horizontalStack=0;resizeParent=1;resizeParentMax=0;resizeLast=0;collapsible=1;marginBottom=0;whiteSpace=wrap;html=1;" vertex="1" parent="1">
          <mxGeometry x="-190" y="280" width="140" height="120" as="geometry" />
        </mxCell>
        <mxCell id="ma2GObzfx0fH_Ag3KKbZ-38" value="Item 1" style="text;strokeColor=none;fillColor=none;align=left;verticalAlign=middle;spacingLeft=4;spacingRight=4;overflow=hidden;points=[[0,0.5],[1,0.5]];portConstraint=eastwest;rotatable=0;whiteSpace=wrap;html=1;" vertex="1" parent="ma2GObzfx0fH_Ag3KKbZ-37">
          <mxGeometry y="30" width="140" height="30" as="geometry" />
        </mxCell>
        <mxCell id="ma2GObzfx0fH_Ag3KKbZ-39" value="Item 2" style="text;strokeColor=none;fillColor=none;align=left;verticalAlign=middle;spacingLeft=4;spacingRight=4;overflow=hidden;points=[[0,0.5],[1,0.5]];portConstraint=eastwest;rotatable=0;whiteSpace=wrap;html=1;" vertex="1" parent="ma2GObzfx0fH_Ag3KKbZ-37">
          <mxGeometry y="60" width="140" height="30" as="geometry" />
        </mxCell>
        <mxCell id="ma2GObzfx0fH_Ag3KKbZ-40" value="Item 3" style="text;strokeColor=none;fillColor=none;align=left;verticalAlign=middle;spacingLeft=4;spacingRight=4;overflow=hidden;points=[[0,0.5],[1,0.5]];portConstraint=eastwest;rotatable=0;whiteSpace=wrap;html=1;" vertex="1" parent="ma2GObzfx0fH_Ag3KKbZ-37">
          <mxGeometry y="90" width="140" height="30" as="geometry" />
        </mxCell>
        <mxCell id="ma2GObzfx0fH_Ag3KKbZ-86" style="edgeStyle=none;shape=connector;rounded=0;orthogonalLoop=1;jettySize=auto;html=1;strokeColor=default;align=center;verticalAlign=middle;fontFamily=Helvetica;fontSize=11;fontColor=default;labelBackgroundColor=default;endArrow=none;endFill=0;" edge="1" parent="1" source="ma2GObzfx0fH_Ag3KKbZ-41" target="ma2GObzfx0fH_Ag3KKbZ-85">
          <mxGeometry relative="1" as="geometry" />
        </mxCell>
        <mxCell id="ma2GObzfx0fH_Ag3KKbZ-98" style="edgeStyle=none;shape=connector;rounded=0;orthogonalLoop=1;jettySize=auto;html=1;strokeColor=default;align=center;verticalAlign=middle;fontFamily=Helvetica;fontSize=11;fontColor=default;labelBackgroundColor=default;endArrow=none;endFill=0;" edge="1" parent="1" source="ma2GObzfx0fH_Ag3KKbZ-41" target="ma2GObzfx0fH_Ag3KKbZ-97">
          <mxGeometry relative="1" as="geometry" />
        </mxCell>
        <mxCell id="ma2GObzfx0fH_Ag3KKbZ-124" style="edgeStyle=none;shape=connector;rounded=0;orthogonalLoop=1;jettySize=auto;html=1;strokeColor=default;align=center;verticalAlign=middle;fontFamily=Helvetica;fontSize=11;fontColor=default;labelBackgroundColor=default;endArrow=none;endFill=0;" edge="1" parent="1" source="ma2GObzfx0fH_Ag3KKbZ-41" target="ma2GObzfx0fH_Ag3KKbZ-123">
          <mxGeometry relative="1" as="geometry" />
        </mxCell>
        <mxCell id="ma2GObzfx0fH_Ag3KKbZ-41" value="programs" style="swimlane;fontStyle=0;childLayout=stackLayout;horizontal=1;startSize=30;horizontalStack=0;resizeParent=1;resizeParentMax=0;resizeLast=0;collapsible=1;marginBottom=0;whiteSpace=wrap;html=1;" vertex="1" parent="1">
          <mxGeometry x="-240" y="470" width="140" height="120" as="geometry" />
        </mxCell>
        <mxCell id="ma2GObzfx0fH_Ag3KKbZ-42" value="Item 1" style="text;strokeColor=none;fillColor=none;align=left;verticalAlign=middle;spacingLeft=4;spacingRight=4;overflow=hidden;points=[[0,0.5],[1,0.5]];portConstraint=eastwest;rotatable=0;whiteSpace=wrap;html=1;" vertex="1" parent="ma2GObzfx0fH_Ag3KKbZ-41">
          <mxGeometry y="30" width="140" height="30" as="geometry" />
        </mxCell>
        <mxCell id="ma2GObzfx0fH_Ag3KKbZ-43" value="Item 2" style="text;strokeColor=none;fillColor=none;align=left;verticalAlign=middle;spacingLeft=4;spacingRight=4;overflow=hidden;points=[[0,0.5],[1,0.5]];portConstraint=eastwest;rotatable=0;whiteSpace=wrap;html=1;" vertex="1" parent="ma2GObzfx0fH_Ag3KKbZ-41">
          <mxGeometry y="60" width="140" height="30" as="geometry" />
        </mxCell>
        <mxCell id="ma2GObzfx0fH_Ag3KKbZ-44" value="Item 3" style="text;strokeColor=none;fillColor=none;align=left;verticalAlign=middle;spacingLeft=4;spacingRight=4;overflow=hidden;points=[[0,0.5],[1,0.5]];portConstraint=eastwest;rotatable=0;whiteSpace=wrap;html=1;" vertex="1" parent="ma2GObzfx0fH_Ag3KKbZ-41">
          <mxGeometry y="90" width="140" height="30" as="geometry" />
        </mxCell>
        <mxCell id="ma2GObzfx0fH_Ag3KKbZ-47" style="rounded=0;orthogonalLoop=1;jettySize=auto;html=1;endArrow=none;endFill=0;" edge="1" parent="1" source="ma2GObzfx0fH_Ag3KKbZ-45" target="ma2GObzfx0fH_Ag3KKbZ-1">
          <mxGeometry relative="1" as="geometry" />
        </mxCell>
        <mxCell id="ma2GObzfx0fH_Ag3KKbZ-45" value="have" style="ellipse;whiteSpace=wrap;html=1;" vertex="1" parent="1">
          <mxGeometry x="90" y="230" width="120" height="80" as="geometry" />
        </mxCell>
        <mxCell id="ma2GObzfx0fH_Ag3KKbZ-48" value="follows" style="ellipse;whiteSpace=wrap;html=1;fontFamily=Helvetica;fontSize=11;fontColor=default;labelBackgroundColor=default;" vertex="1" parent="1">
          <mxGeometry x="154" y="28" width="120" height="80" as="geometry" />
        </mxCell>
        <mxCell id="ma2GObzfx0fH_Ag3KKbZ-51" value="lives in" style="ellipse;whiteSpace=wrap;html=1;fontFamily=Helvetica;fontSize=11;fontColor=default;labelBackgroundColor=default;" vertex="1" parent="1">
          <mxGeometry x="320" y="160" width="120" height="80" as="geometry" />
        </mxCell>
        <mxCell id="ma2GObzfx0fH_Ag3KKbZ-60" style="edgeStyle=none;shape=connector;rounded=0;orthogonalLoop=1;jettySize=auto;html=1;strokeColor=default;align=center;verticalAlign=middle;fontFamily=Helvetica;fontSize=11;fontColor=default;labelBackgroundColor=default;endArrow=none;endFill=0;" edge="1" parent="1" source="ma2GObzfx0fH_Ag3KKbZ-54" target="ma2GObzfx0fH_Ag3KKbZ-9">
          <mxGeometry relative="1" as="geometry" />
        </mxCell>
        <mxCell id="ma2GObzfx0fH_Ag3KKbZ-54" value="likes" style="ellipse;whiteSpace=wrap;html=1;fontFamily=Helvetica;fontSize=11;fontColor=default;labelBackgroundColor=default;" vertex="1" parent="1">
          <mxGeometry x="540" y="150" width="120" height="80" as="geometry" />
        </mxCell>
        <mxCell id="ma2GObzfx0fH_Ag3KKbZ-62" style="edgeStyle=none;shape=connector;rounded=0;orthogonalLoop=1;jettySize=auto;html=1;strokeColor=default;align=center;verticalAlign=middle;fontFamily=Helvetica;fontSize=11;fontColor=default;labelBackgroundColor=default;endArrow=none;endFill=0;" edge="1" parent="1" source="ma2GObzfx0fH_Ag3KKbZ-55" target="ma2GObzfx0fH_Ag3KKbZ-9">
          <mxGeometry relative="1" as="geometry" />
        </mxCell>
        <mxCell id="ma2GObzfx0fH_Ag3KKbZ-55" value="comments on" style="ellipse;whiteSpace=wrap;html=1;fontFamily=Helvetica;fontSize=11;fontColor=default;labelBackgroundColor=default;" vertex="1" parent="1">
          <mxGeometry x="550" y="330" width="120" height="80" as="geometry" />
        </mxCell>
        <mxCell id="ma2GObzfx0fH_Ag3KKbZ-61" style="edgeStyle=none;shape=connector;rounded=0;orthogonalLoop=1;jettySize=auto;html=1;strokeColor=default;align=center;verticalAlign=middle;fontFamily=Helvetica;fontSize=11;fontColor=default;labelBackgroundColor=default;endArrow=none;endFill=0;" edge="1" parent="1" source="ma2GObzfx0fH_Ag3KKbZ-56" target="ma2GObzfx0fH_Ag3KKbZ-9">
          <mxGeometry relative="1" as="geometry" />
        </mxCell>
        <mxCell id="ma2GObzfx0fH_Ag3KKbZ-56" value="shares" style="ellipse;whiteSpace=wrap;html=1;fontFamily=Helvetica;fontSize=11;fontColor=default;labelBackgroundColor=default;" vertex="1" parent="1">
          <mxGeometry x="540" y="240" width="120" height="80" as="geometry" />
        </mxCell>
        <mxCell id="ma2GObzfx0fH_Ag3KKbZ-58" style="edgeStyle=none;shape=connector;rounded=0;orthogonalLoop=1;jettySize=auto;html=1;strokeColor=default;align=center;verticalAlign=middle;fontFamily=Helvetica;fontSize=11;fontColor=default;labelBackgroundColor=default;endArrow=none;endFill=0;" edge="1" parent="1" source="ma2GObzfx0fH_Ag3KKbZ-2" target="ma2GObzfx0fH_Ag3KKbZ-55">
          <mxGeometry relative="1" as="geometry" />
        </mxCell>
        <mxCell id="ma2GObzfx0fH_Ag3KKbZ-63" value="has" style="ellipse;whiteSpace=wrap;html=1;fontFamily=Helvetica;fontSize=11;fontColor=default;labelBackgroundColor=default;" vertex="1" parent="1">
          <mxGeometry x="800" y="290" width="120" height="80" as="geometry" />
        </mxCell>
        <mxCell id="ma2GObzfx0fH_Ag3KKbZ-66" value="sets" style="swimlane;fontStyle=0;childLayout=stackLayout;horizontal=1;startSize=30;horizontalStack=0;resizeParent=1;resizeParentMax=0;resizeLast=0;collapsible=1;marginBottom=0;whiteSpace=wrap;html=1;" vertex="1" parent="1">
          <mxGeometry x="970" y="610" width="140" height="120" as="geometry" />
        </mxCell>
        <mxCell id="ma2GObzfx0fH_Ag3KKbZ-67" value="Item 1" style="text;strokeColor=none;fillColor=none;align=left;verticalAlign=middle;spacingLeft=4;spacingRight=4;overflow=hidden;points=[[0,0.5],[1,0.5]];portConstraint=eastwest;rotatable=0;whiteSpace=wrap;html=1;" vertex="1" parent="ma2GObzfx0fH_Ag3KKbZ-66">
          <mxGeometry y="30" width="140" height="30" as="geometry" />
        </mxCell>
        <mxCell id="ma2GObzfx0fH_Ag3KKbZ-68" value="Item 2" style="text;strokeColor=none;fillColor=none;align=left;verticalAlign=middle;spacingLeft=4;spacingRight=4;overflow=hidden;points=[[0,0.5],[1,0.5]];portConstraint=eastwest;rotatable=0;whiteSpace=wrap;html=1;" vertex="1" parent="ma2GObzfx0fH_Ag3KKbZ-66">
          <mxGeometry y="60" width="140" height="30" as="geometry" />
        </mxCell>
        <mxCell id="ma2GObzfx0fH_Ag3KKbZ-69" value="Item 3" style="text;strokeColor=none;fillColor=none;align=left;verticalAlign=middle;spacingLeft=4;spacingRight=4;overflow=hidden;points=[[0,0.5],[1,0.5]];portConstraint=eastwest;rotatable=0;whiteSpace=wrap;html=1;" vertex="1" parent="ma2GObzfx0fH_Ag3KKbZ-66">
          <mxGeometry y="90" width="140" height="30" as="geometry" />
        </mxCell>
        <mxCell id="ma2GObzfx0fH_Ag3KKbZ-70" value="includes" style="ellipse;whiteSpace=wrap;html=1;fontFamily=Helvetica;fontSize=11;fontColor=default;labelBackgroundColor=default;" vertex="1" parent="1">
          <mxGeometry x="680" y="390" width="120" height="80" as="geometry" />
        </mxCell>
        <mxCell id="ma2GObzfx0fH_Ag3KKbZ-75" style="edgeStyle=none;shape=connector;rounded=0;orthogonalLoop=1;jettySize=auto;html=1;strokeColor=default;align=center;verticalAlign=middle;fontFamily=Helvetica;fontSize=11;fontColor=default;labelBackgroundColor=default;endArrow=none;endFill=0;" edge="1" parent="1" source="ma2GObzfx0fH_Ag3KKbZ-73" target="ma2GObzfx0fH_Ag3KKbZ-66">
          <mxGeometry relative="1" as="geometry" />
        </mxCell>
        <mxCell id="ma2GObzfx0fH_Ag3KKbZ-73" value="gets" style="ellipse;whiteSpace=wrap;html=1;fontFamily=Helvetica;fontSize=11;fontColor=default;labelBackgroundColor=default;" vertex="1" parent="1">
          <mxGeometry x="770" y="550" width="120" height="80" as="geometry" />
        </mxCell>
        <mxCell id="ma2GObzfx0fH_Ag3KKbZ-78" style="edgeStyle=none;shape=connector;rounded=0;orthogonalLoop=1;jettySize=auto;html=1;strokeColor=default;align=center;verticalAlign=middle;fontFamily=Helvetica;fontSize=11;fontColor=default;labelBackgroundColor=default;endArrow=none;endFill=0;" edge="1" parent="1" source="ma2GObzfx0fH_Ag3KKbZ-76" target="ma2GObzfx0fH_Ag3KKbZ-21">
          <mxGeometry relative="1" as="geometry" />
        </mxCell>
        <mxCell id="ma2GObzfx0fH_Ag3KKbZ-76" value="targets" style="ellipse;whiteSpace=wrap;html=1;fontFamily=Helvetica;fontSize=11;fontColor=default;labelBackgroundColor=default;" vertex="1" parent="1">
          <mxGeometry x="500" y="730" width="120" height="80" as="geometry" />
        </mxCell>
        <mxCell id="ma2GObzfx0fH_Ag3KKbZ-81" style="edgeStyle=none;shape=connector;rounded=0;orthogonalLoop=1;jettySize=auto;html=1;strokeColor=default;align=center;verticalAlign=middle;fontFamily=Helvetica;fontSize=11;fontColor=default;labelBackgroundColor=default;endArrow=none;endFill=0;" edge="1" parent="1" source="ma2GObzfx0fH_Ag3KKbZ-79" target="ma2GObzfx0fH_Ag3KKbZ-17">
          <mxGeometry relative="1" as="geometry" />
        </mxCell>
        <mxCell id="ma2GObzfx0fH_Ag3KKbZ-79" value="records" style="ellipse;whiteSpace=wrap;html=1;fontFamily=Helvetica;fontSize=11;fontColor=default;labelBackgroundColor=default;" vertex="1" parent="1">
          <mxGeometry x="450" y="585" width="120" height="80" as="geometry" />
        </mxCell>
        <mxCell id="ma2GObzfx0fH_Ag3KKbZ-84" style="edgeStyle=none;shape=connector;rounded=0;orthogonalLoop=1;jettySize=auto;html=1;strokeColor=default;align=center;verticalAlign=middle;fontFamily=Helvetica;fontSize=11;fontColor=default;labelBackgroundColor=default;endArrow=none;endFill=0;" edge="1" parent="1" source="ma2GObzfx0fH_Ag3KKbZ-82" target="ma2GObzfx0fH_Ag3KKbZ-17">
          <mxGeometry relative="1" as="geometry" />
        </mxCell>
        <mxCell id="ma2GObzfx0fH_Ag3KKbZ-82" value="belongs to" style="ellipse;whiteSpace=wrap;html=1;fontFamily=Helvetica;fontSize=11;fontColor=default;labelBackgroundColor=default;" vertex="1" parent="1">
          <mxGeometry x="440" y="455" width="120" height="80" as="geometry" />
        </mxCell>
        <mxCell id="ma2GObzfx0fH_Ag3KKbZ-87" style="edgeStyle=none;shape=connector;rounded=0;orthogonalLoop=1;jettySize=auto;html=1;strokeColor=default;align=center;verticalAlign=middle;fontFamily=Helvetica;fontSize=11;fontColor=default;labelBackgroundColor=default;endArrow=none;endFill=0;" edge="1" parent="1" source="ma2GObzfx0fH_Ag3KKbZ-85" target="ma2GObzfx0fH_Ag3KKbZ-29">
          <mxGeometry relative="1" as="geometry" />
        </mxCell>
        <mxCell id="ma2GObzfx0fH_Ag3KKbZ-85" value="is part of" style="ellipse;whiteSpace=wrap;html=1;fontFamily=Helvetica;fontSize=11;fontColor=default;labelBackgroundColor=default;" vertex="1" parent="1">
          <mxGeometry x="-230" y="650" width="120" height="80" as="geometry" />
        </mxCell>
        <mxCell id="ma2GObzfx0fH_Ag3KKbZ-90" style="edgeStyle=none;shape=connector;rounded=0;orthogonalLoop=1;jettySize=auto;html=1;strokeColor=default;align=center;verticalAlign=middle;fontFamily=Helvetica;fontSize=11;fontColor=default;labelBackgroundColor=default;endArrow=none;endFill=0;" edge="1" parent="1" source="ma2GObzfx0fH_Ag3KKbZ-88" target="ma2GObzfx0fH_Ag3KKbZ-25">
          <mxGeometry relative="1" as="geometry" />
        </mxCell>
        <mxCell id="ma2GObzfx0fH_Ag3KKbZ-88" value="contains" style="ellipse;whiteSpace=wrap;html=1;fontFamily=Helvetica;fontSize=11;fontColor=default;labelBackgroundColor=default;" vertex="1" parent="1">
          <mxGeometry x="154" y="700" width="120" height="80" as="geometry" />
        </mxCell>
        <mxCell id="ma2GObzfx0fH_Ag3KKbZ-93" style="edgeStyle=none;shape=connector;rounded=0;orthogonalLoop=1;jettySize=auto;html=1;strokeColor=default;align=center;verticalAlign=middle;fontFamily=Helvetica;fontSize=11;fontColor=default;labelBackgroundColor=default;endArrow=none;endFill=0;" edge="1" parent="1" source="ma2GObzfx0fH_Ag3KKbZ-91" target="ma2GObzfx0fH_Ag3KKbZ-1">
          <mxGeometry relative="1" as="geometry" />
        </mxCell>
        <mxCell id="ma2GObzfx0fH_Ag3KKbZ-91" value="do" style="ellipse;whiteSpace=wrap;html=1;fontFamily=Helvetica;fontSize=11;fontColor=default;labelBackgroundColor=default;" vertex="1" parent="1">
          <mxGeometry x="80" y="560" width="120" height="80" as="geometry" />
        </mxCell>
        <mxCell id="ma2GObzfx0fH_Ag3KKbZ-96" style="edgeStyle=none;shape=connector;rounded=0;orthogonalLoop=1;jettySize=auto;html=1;strokeColor=default;align=center;verticalAlign=middle;fontFamily=Helvetica;fontSize=11;fontColor=default;labelBackgroundColor=default;endArrow=none;endFill=0;" edge="1" parent="1" source="ma2GObzfx0fH_Ag3KKbZ-94" target="ma2GObzfx0fH_Ag3KKbZ-1">
          <mxGeometry relative="1" as="geometry" />
        </mxCell>
        <mxCell id="ma2GObzfx0fH_Ag3KKbZ-94" value="receives" style="ellipse;whiteSpace=wrap;html=1;fontFamily=Helvetica;fontSize=11;fontColor=default;labelBackgroundColor=default;" vertex="1" parent="1">
          <mxGeometry x="60" y="320" width="120" height="80" as="geometry" />
        </mxCell>
        <mxCell id="ma2GObzfx0fH_Ag3KKbZ-99" style="edgeStyle=none;shape=connector;rounded=0;orthogonalLoop=1;jettySize=auto;html=1;strokeColor=default;align=center;verticalAlign=middle;fontFamily=Helvetica;fontSize=11;fontColor=default;labelBackgroundColor=default;endArrow=none;endFill=0;" edge="1" parent="1" source="ma2GObzfx0fH_Ag3KKbZ-97" target="ma2GObzfx0fH_Ag3KKbZ-1">
          <mxGeometry relative="1" as="geometry" />
        </mxCell>
        <mxCell id="ma2GObzfx0fH_Ag3KKbZ-97" value="participates in&amp;nbsp;" style="ellipse;whiteSpace=wrap;html=1;fontFamily=Helvetica;fontSize=11;fontColor=default;labelBackgroundColor=default;" vertex="1" parent="1">
          <mxGeometry x="-10" y="390" width="120" height="80" as="geometry" />
        </mxCell>
        <mxCell id="ma2GObzfx0fH_Ag3KKbZ-102" style="edgeStyle=none;shape=connector;rounded=0;orthogonalLoop=1;jettySize=auto;html=1;strokeColor=default;align=center;verticalAlign=middle;fontFamily=Helvetica;fontSize=11;fontColor=default;labelBackgroundColor=default;endArrow=none;endFill=0;" edge="1" parent="1" source="ma2GObzfx0fH_Ag3KKbZ-100" target="ma2GObzfx0fH_Ag3KKbZ-9">
          <mxGeometry relative="1" as="geometry" />
        </mxCell>
        <mxCell id="ma2GObzfx0fH_Ag3KKbZ-100" value="creates" style="ellipse;whiteSpace=wrap;html=1;fontFamily=Helvetica;fontSize=11;fontColor=default;labelBackgroundColor=default;" vertex="1" parent="1">
          <mxGeometry x="520" y="40" width="120" height="80" as="geometry" />
        </mxCell>
        <mxCell id="ma2GObzfx0fH_Ag3KKbZ-103" value="1,1" style="text;html=1;align=center;verticalAlign=middle;resizable=0;points=[];autosize=1;strokeColor=none;fillColor=none;fontFamily=Helvetica;fontSize=11;fontColor=default;labelBackgroundColor=default;" vertex="1" parent="1">
          <mxGeometry x="380" y="258" width="40" height="30" as="geometry" />
        </mxCell>
        <mxCell id="ma2GObzfx0fH_Ag3KKbZ-104" value="0,n" style="text;html=1;align=center;verticalAlign=middle;resizable=0;points=[];autosize=1;strokeColor=none;fillColor=none;fontFamily=Helvetica;fontSize=11;fontColor=default;labelBackgroundColor=default;" vertex="1" parent="1">
          <mxGeometry x="390" y="98" width="40" height="30" as="geometry" />
        </mxCell>
        <mxCell id="ma2GObzfx0fH_Ag3KKbZ-105" value="0,n" style="text;html=1;align=center;verticalAlign=middle;resizable=0;points=[];autosize=1;strokeColor=none;fillColor=none;fontFamily=Helvetica;fontSize=11;fontColor=default;labelBackgroundColor=default;" vertex="1" parent="1">
          <mxGeometry x="670" y="160" width="40" height="30" as="geometry" />
        </mxCell>
        <mxCell id="ma2GObzfx0fH_Ag3KKbZ-106" value="0,n" style="text;html=1;align=center;verticalAlign=middle;resizable=0;points=[];autosize=1;strokeColor=none;fillColor=none;fontFamily=Helvetica;fontSize=11;fontColor=default;labelBackgroundColor=default;" vertex="1" parent="1">
          <mxGeometry x="440" y="265" width="40" height="30" as="geometry" />
        </mxCell>
        <mxCell id="ma2GObzfx0fH_Ag3KKbZ-107" value="0,n" style="text;html=1;align=center;verticalAlign=middle;resizable=0;points=[];autosize=1;strokeColor=none;fillColor=none;fontFamily=Helvetica;fontSize=11;fontColor=default;labelBackgroundColor=default;" vertex="1" parent="1">
          <mxGeometry x="470" y="288" width="40" height="30" as="geometry" />
        </mxCell>
        <mxCell id="ma2GObzfx0fH_Ag3KKbZ-108" value="0,n" style="text;html=1;align=center;verticalAlign=middle;resizable=0;points=[];autosize=1;strokeColor=none;fillColor=none;fontFamily=Helvetica;fontSize=11;fontColor=default;labelBackgroundColor=default;" vertex="1" parent="1">
          <mxGeometry x="480" y="330" width="40" height="30" as="geometry" />
        </mxCell>
        <mxCell id="ma2GObzfx0fH_Ag3KKbZ-109" value="0,n" style="text;html=1;align=center;verticalAlign=middle;resizable=0;points=[];autosize=1;strokeColor=none;fillColor=none;fontFamily=Helvetica;fontSize=11;fontColor=default;labelBackgroundColor=default;" vertex="1" parent="1">
          <mxGeometry x="680" y="250" width="40" height="30" as="geometry" />
        </mxCell>
        <mxCell id="ma2GObzfx0fH_Ag3KKbZ-110" value="0,n" style="text;html=1;align=center;verticalAlign=middle;resizable=0;points=[];autosize=1;strokeColor=none;fillColor=none;fontFamily=Helvetica;fontSize=11;fontColor=default;labelBackgroundColor=default;" vertex="1" parent="1">
          <mxGeometry x="670" y="200" width="40" height="30" as="geometry" />
        </mxCell>
        <mxCell id="ma2GObzfx0fH_Ag3KKbZ-111" value="1,1" style="text;html=1;align=center;verticalAlign=middle;resizable=0;points=[];autosize=1;strokeColor=none;fillColor=none;fontFamily=Helvetica;fontSize=11;fontColor=default;labelBackgroundColor=default;" vertex="1" parent="1">
          <mxGeometry x="680" y="90" width="40" height="30" as="geometry" />
        </mxCell>
        <mxCell id="ma2GObzfx0fH_Ag3KKbZ-112" value="0,n" style="text;html=1;align=center;verticalAlign=middle;resizable=0;points=[];autosize=1;strokeColor=none;fillColor=none;fontFamily=Helvetica;fontSize=11;fontColor=default;labelBackgroundColor=default;" vertex="1" parent="1">
          <mxGeometry x="410" y="250" width="40" height="30" as="geometry" />
        </mxCell>
        <mxCell id="ma2GObzfx0fH_Ag3KKbZ-113" value="0,n" style="text;html=1;align=center;verticalAlign=middle;resizable=0;points=[];autosize=1;strokeColor=none;fillColor=none;fontFamily=Helvetica;fontSize=11;fontColor=default;labelBackgroundColor=default;" vertex="1" parent="1">
          <mxGeometry x="194" y="195" width="40" height="30" as="geometry" />
        </mxCell>
        <mxCell id="ma2GObzfx0fH_Ag3KKbZ-114" value="0,n" style="text;html=1;align=center;verticalAlign=middle;resizable=0;points=[];autosize=1;strokeColor=none;fillColor=none;fontFamily=Helvetica;fontSize=11;fontColor=default;labelBackgroundColor=default;" vertex="1" parent="1">
          <mxGeometry x="270" y="150" width="40" height="30" as="geometry" />
        </mxCell>
        <mxCell id="ma2GObzfx0fH_Ag3KKbZ-115" value="0,n" style="text;html=1;align=center;verticalAlign=middle;resizable=0;points=[];autosize=1;strokeColor=none;fillColor=none;fontFamily=Helvetica;fontSize=11;fontColor=default;labelBackgroundColor=default;" vertex="1" parent="1">
          <mxGeometry x="40" y="220" width="40" height="30" as="geometry" />
        </mxCell>
        <mxCell id="ma2GObzfx0fH_Ag3KKbZ-116" value="1,1" style="text;html=1;align=center;verticalAlign=middle;resizable=0;points=[];autosize=1;strokeColor=none;fillColor=none;fontFamily=Helvetica;fontSize=11;fontColor=default;labelBackgroundColor=default;" vertex="1" parent="1">
          <mxGeometry x="234" y="320" width="40" height="30" as="geometry" />
        </mxCell>
        <mxCell id="ma2GObzfx0fH_Ag3KKbZ-117" value="0,n" style="text;html=1;align=center;verticalAlign=middle;resizable=0;points=[];autosize=1;strokeColor=none;fillColor=none;fontFamily=Helvetica;fontSize=11;fontColor=default;labelBackgroundColor=default;" vertex="1" parent="1">
          <mxGeometry x="190" y="340" width="40" height="30" as="geometry" />
        </mxCell>
        <mxCell id="ma2GObzfx0fH_Ag3KKbZ-118" value="1,1" style="text;html=1;align=center;verticalAlign=middle;resizable=0;points=[];autosize=1;strokeColor=none;fillColor=none;fontFamily=Helvetica;fontSize=11;fontColor=default;labelBackgroundColor=default;" vertex="1" parent="1">
          <mxGeometry x="-30" y="318" width="40" height="30" as="geometry" />
        </mxCell>
        <mxCell id="ma2GObzfx0fH_Ag3KKbZ-119" value="0,n" style="text;html=1;align=center;verticalAlign=middle;resizable=0;points=[];autosize=1;strokeColor=none;fillColor=none;fontFamily=Helvetica;fontSize=11;fontColor=default;labelBackgroundColor=default;" vertex="1" parent="1">
          <mxGeometry x="210" y="380" width="40" height="30" as="geometry" />
        </mxCell>
        <mxCell id="ma2GObzfx0fH_Ag3KKbZ-120" value="0.n" style="text;html=1;align=center;verticalAlign=middle;resizable=0;points=[];autosize=1;strokeColor=none;fillColor=none;fontFamily=Helvetica;fontSize=11;fontColor=default;labelBackgroundColor=default;" vertex="1" parent="1">
          <mxGeometry x="-90" y="445" width="40" height="30" as="geometry" />
        </mxCell>
        <mxCell id="ma2GObzfx0fH_Ag3KKbZ-125" style="edgeStyle=none;shape=connector;rounded=0;orthogonalLoop=1;jettySize=auto;html=1;strokeColor=default;align=center;verticalAlign=middle;fontFamily=Helvetica;fontSize=11;fontColor=default;labelBackgroundColor=default;endArrow=none;endFill=0;" edge="1" parent="1" source="ma2GObzfx0fH_Ag3KKbZ-123" target="ma2GObzfx0fH_Ag3KKbZ-1">
          <mxGeometry relative="1" as="geometry" />
        </mxCell>
        <mxCell id="ma2GObzfx0fH_Ag3KKbZ-123" value="makes" style="ellipse;whiteSpace=wrap;html=1;fontFamily=Helvetica;fontSize=11;fontColor=default;labelBackgroundColor=default;" vertex="1" parent="1">
          <mxGeometry y="470" width="120" height="80" as="geometry" />
        </mxCell>
        <mxCell id="ma2GObzfx0fH_Ag3KKbZ-126" value="1,1" style="text;html=1;align=center;verticalAlign=middle;resizable=0;points=[];autosize=1;strokeColor=none;fillColor=none;fontFamily=Helvetica;fontSize=11;fontColor=default;labelBackgroundColor=default;" vertex="1" parent="1">
          <mxGeometry x="-80" y="490" width="40" height="30" as="geometry" />
        </mxCell>
        <mxCell id="ma2GObzfx0fH_Ag3KKbZ-127" value="0.n" style="text;html=1;align=center;verticalAlign=middle;resizable=0;points=[];autosize=1;strokeColor=none;fillColor=none;fontFamily=Helvetica;fontSize=11;fontColor=default;labelBackgroundColor=default;" vertex="1" parent="1">
          <mxGeometry x="180" y="425" width="40" height="30" as="geometry" />
        </mxCell>
        <mxCell id="ma2GObzfx0fH_Ag3KKbZ-128" value="1,1" style="text;html=1;align=center;verticalAlign=middle;resizable=0;points=[];autosize=1;strokeColor=none;fillColor=none;fontFamily=Helvetica;fontSize=11;fontColor=default;labelBackgroundColor=default;" vertex="1" parent="1">
          <mxGeometry x="-90" y="680" width="40" height="30" as="geometry" />
        </mxCell>
        <mxCell id="ma2GObzfx0fH_Ag3KKbZ-129" value="0.n" style="text;html=1;align=center;verticalAlign=middle;resizable=0;points=[];autosize=1;strokeColor=none;fillColor=none;fontFamily=Helvetica;fontSize=11;fontColor=default;labelBackgroundColor=default;" vertex="1" parent="1">
          <mxGeometry x="-160" y="610" width="40" height="30" as="geometry" />
        </mxCell>
        <mxCell id="ma2GObzfx0fH_Ag3KKbZ-130" value="0,n" style="text;html=1;align=center;verticalAlign=middle;resizable=0;points=[];autosize=1;strokeColor=none;fillColor=none;fontFamily=Helvetica;fontSize=11;fontColor=default;labelBackgroundColor=default;" vertex="1" parent="1">
          <mxGeometry x="170" y="515" width="40" height="30" as="geometry" />
        </mxCell>
        <mxCell id="ma2GObzfx0fH_Ag3KKbZ-131" value="1,1" style="text;html=1;align=center;verticalAlign=middle;resizable=0;points=[];autosize=1;strokeColor=none;fillColor=none;fontFamily=Helvetica;fontSize=11;fontColor=default;labelBackgroundColor=default;" vertex="1" parent="1">
          <mxGeometry x="50" y="640" width="40" height="30" as="geometry" />
        </mxCell>
        <mxCell id="ma2GObzfx0fH_Ag3KKbZ-132" value="0,n" style="text;html=1;align=center;verticalAlign=middle;resizable=0;points=[];autosize=1;strokeColor=none;fillColor=none;fontFamily=Helvetica;fontSize=11;fontColor=default;labelBackgroundColor=default;" vertex="1" parent="1">
          <mxGeometry x="270" y="690" width="40" height="30" as="geometry" />
        </mxCell>
        <mxCell id="ma2GObzfx0fH_Ag3KKbZ-133" value="0,n" style="text;html=1;align=center;verticalAlign=middle;resizable=0;points=[];autosize=1;strokeColor=none;fillColor=none;fontFamily=Helvetica;fontSize=11;fontColor=default;labelBackgroundColor=default;" vertex="1" parent="1">
          <mxGeometry x="100" y="710" width="40" height="30" as="geometry" />
        </mxCell>
        <mxCell id="ma2GObzfx0fH_Ag3KKbZ-134" value="1,1" style="text;html=1;align=center;verticalAlign=middle;resizable=0;points=[];autosize=1;strokeColor=none;fillColor=none;fontFamily=Helvetica;fontSize=11;fontColor=default;labelBackgroundColor=default;" vertex="1" parent="1">
          <mxGeometry x="550" y="570" width="40" height="30" as="geometry" />
        </mxCell>
        <mxCell id="ma2GObzfx0fH_Ag3KKbZ-135" value="0,n" style="text;html=1;align=center;verticalAlign=middle;resizable=0;points=[];autosize=1;strokeColor=none;fillColor=none;fontFamily=Helvetica;fontSize=11;fontColor=default;labelBackgroundColor=default;" vertex="1" parent="1">
          <mxGeometry x="420" y="640" width="40" height="30" as="geometry" />
        </mxCell>
        <mxCell id="ma2GObzfx0fH_Ag3KKbZ-136" value="1,n" style="text;html=1;align=center;verticalAlign=middle;resizable=0;points=[];autosize=1;strokeColor=none;fillColor=none;fontFamily=Helvetica;fontSize=11;fontColor=default;labelBackgroundColor=default;" vertex="1" parent="1">
          <mxGeometry x="550" y="505" width="40" height="30" as="geometry" />
        </mxCell>
        <mxCell id="ma2GObzfx0fH_Ag3KKbZ-137" value="0,n" style="text;html=1;align=center;verticalAlign=middle;resizable=0;points=[];autosize=1;strokeColor=none;fillColor=none;fontFamily=Helvetica;fontSize=11;fontColor=default;labelBackgroundColor=default;" vertex="1" parent="1">
          <mxGeometry x="450" y="425" width="40" height="30" as="geometry" />
        </mxCell>
        <mxCell id="ma2GObzfx0fH_Ag3KKbZ-138" value="0,n" style="text;html=1;align=center;verticalAlign=middle;resizable=0;points=[];autosize=1;strokeColor=none;fillColor=none;fontFamily=Helvetica;fontSize=11;fontColor=default;labelBackgroundColor=default;" vertex="1" parent="1">
          <mxGeometry x="600" y="725" width="40" height="30" as="geometry" />
        </mxCell>
        <mxCell id="ma2GObzfx0fH_Ag3KKbZ-139" value="1,n" style="text;html=1;align=center;verticalAlign=middle;resizable=0;points=[];autosize=1;strokeColor=none;fillColor=none;fontFamily=Helvetica;fontSize=11;fontColor=default;labelBackgroundColor=default;" vertex="1" parent="1">
          <mxGeometry x="470" y="725" width="40" height="30" as="geometry" />
        </mxCell>
        <mxCell id="ma2GObzfx0fH_Ag3KKbZ-140" value="0,n" style="text;html=1;align=center;verticalAlign=middle;resizable=0;points=[];autosize=1;strokeColor=none;fillColor=none;fontFamily=Helvetica;fontSize=11;fontColor=default;labelBackgroundColor=default;" vertex="1" parent="1">
          <mxGeometry x="670" y="475" width="40" height="30" as="geometry" />
        </mxCell>
        <mxCell id="ma2GObzfx0fH_Ag3KKbZ-141" value="0,1" style="text;html=1;align=center;verticalAlign=middle;resizable=0;points=[];autosize=1;strokeColor=none;fillColor=none;fontFamily=Helvetica;fontSize=11;fontColor=default;labelBackgroundColor=default;" vertex="1" parent="1">
          <mxGeometry x="720" y="295" width="40" height="30" as="geometry" />
        </mxCell>
        <mxCell id="ma2GObzfx0fH_Ag3KKbZ-142" value="1,n" style="text;html=1;align=center;verticalAlign=middle;resizable=0;points=[];autosize=1;strokeColor=none;fillColor=none;fontFamily=Helvetica;fontSize=11;fontColor=default;labelBackgroundColor=default;" vertex="1" parent="1">
          <mxGeometry x="900" y="360" width="40" height="30" as="geometry" />
        </mxCell>
        <mxCell id="ma2GObzfx0fH_Ag3KKbZ-143" value="0,n" style="text;html=1;align=center;verticalAlign=middle;resizable=0;points=[];autosize=1;strokeColor=none;fillColor=none;fontFamily=Helvetica;fontSize=11;fontColor=default;labelBackgroundColor=default;" vertex="1" parent="1">
          <mxGeometry x="840" y="260" width="40" height="30" as="geometry" />
        </mxCell>
        <mxCell id="ma2GObzfx0fH_Ag3KKbZ-144" value="1,1" style="text;html=1;align=center;verticalAlign=middle;resizable=0;points=[];autosize=1;strokeColor=none;fillColor=none;fontFamily=Helvetica;fontSize=11;fontColor=default;labelBackgroundColor=default;" vertex="1" parent="1">
          <mxGeometry x="920" y="590" width="40" height="30" as="geometry" />
        </mxCell>
        <mxCell id="ma2GObzfx0fH_Ag3KKbZ-145" value="1,n" style="text;html=1;align=center;verticalAlign=middle;resizable=0;points=[];autosize=1;strokeColor=none;fillColor=none;fontFamily=Helvetica;fontSize=11;fontColor=default;labelBackgroundColor=default;" vertex="1" parent="1">
          <mxGeometry x="730" y="560" width="40" height="30" as="geometry" />
        </mxCell>
      </root>
    </mxGraphModel>
  </diagram>
</mxfile>
